G04 MADE WITH FRITZING*
G04 WWW.FRITZING.ORG*
G04 DOUBLE SIDED*
G04 HOLES PLATED*
G04 CONTOUR ON CENTER OF CONTOUR VECTOR*
%ASAXBY*%
%FSLAX23Y23*%
%MOIN*%
%OFA0B0*%
%SFA1.0B1.0*%
%ADD10C,0.075000*%
%ADD11C,0.078000*%
%ADD12C,0.062992*%
%ADD13C,0.067000*%
%ADD14C,0.095118*%
%ADD15C,0.086614*%
%ADD16C,0.075433*%
%ADD17R,0.075000X0.075000*%
%ADD18R,0.062992X0.062992*%
%ADD19R,0.067000X0.067000*%
%ADD20R,0.095118X0.095118*%
%ADD21C,0.024000*%
%LNCOPPER0*%
G90*
G70*
G54D10*
X2068Y1228D03*
X2068Y928D03*
X1968Y1228D03*
X1968Y928D03*
X1868Y1228D03*
X1868Y928D03*
X1768Y1228D03*
X1768Y928D03*
X1668Y1228D03*
X1668Y928D03*
X1568Y1228D03*
X1568Y928D03*
X1468Y1228D03*
X1468Y928D03*
X1368Y1228D03*
X1368Y928D03*
G54D11*
X1256Y63D03*
X1356Y63D03*
X1456Y63D03*
X1556Y63D03*
X1656Y63D03*
X1756Y63D03*
X1856Y63D03*
X1956Y63D03*
X2056Y63D03*
X2156Y63D03*
X2256Y63D03*
X2356Y63D03*
X2456Y63D03*
G54D12*
X1216Y342D03*
X1216Y441D03*
X1531Y342D03*
X1531Y441D03*
X2161Y421D03*
X2161Y323D03*
X1846Y421D03*
X1846Y323D03*
G54D13*
X1020Y598D03*
X1420Y598D03*
X1413Y716D03*
X1813Y716D03*
X2352Y693D03*
X2352Y293D03*
X1728Y559D03*
X2128Y559D03*
G54D14*
X2234Y2041D03*
X2234Y1841D03*
X2234Y1641D03*
X2234Y1441D03*
G54D10*
X1453Y1661D03*
X1553Y1661D03*
X1216Y1543D03*
X1316Y1543D03*
X1138Y1071D03*
X1238Y1071D03*
X1166Y1357D03*
X1166Y1257D03*
G54D11*
X896Y1953D03*
X2397Y1071D03*
X896Y142D03*
X108Y142D03*
X108Y1953D03*
G54D15*
X187Y378D03*
X817Y1717D03*
X1492Y1504D03*
G54D16*
X1788Y257D03*
X1980Y617D03*
G54D17*
X2068Y1228D03*
G54D18*
X1216Y342D03*
X1531Y342D03*
X2161Y421D03*
X1846Y421D03*
G54D19*
X1020Y598D03*
X1413Y716D03*
X2352Y693D03*
X1728Y559D03*
G54D20*
X2234Y2041D03*
G54D17*
X1453Y1661D03*
X1216Y1543D03*
X1138Y1071D03*
X1166Y1357D03*
G54D21*
X2243Y2013D02*
X2244Y2009D01*
X2244Y2009D02*
X924Y2009D01*
X924Y2009D02*
X924Y1985D01*
X924Y1985D02*
X913Y1972D01*
D02*
X2226Y1870D02*
X2220Y1889D01*
D02*
X2220Y1889D02*
X817Y1834D01*
D02*
X817Y1834D02*
X738Y1913D01*
D02*
X738Y1913D02*
X132Y1937D01*
D02*
X132Y1937D02*
X130Y1939D01*
D02*
X2169Y442D02*
X2172Y449D01*
X2172Y449D02*
X2220Y449D01*
X2220Y449D02*
X2220Y461D01*
X2220Y461D02*
X2352Y593D01*
X2352Y593D02*
X2364Y593D01*
X2364Y593D02*
X2364Y665D01*
X2364Y665D02*
X2362Y671D01*
D02*
X1254Y1090D02*
X1260Y1097D01*
X1260Y1097D02*
X1452Y1097D01*
X1452Y1097D02*
X1452Y1109D01*
X1452Y1109D02*
X1500Y1157D01*
X1500Y1157D02*
X1500Y1169D01*
D02*
X1500Y1169D02*
X1572Y1169D01*
D02*
X1572Y1169D02*
X1572Y1193D01*
D02*
X1572Y1193D02*
X1571Y1203D01*
D02*
X1185Y1340D02*
X1188Y1337D01*
D02*
X1188Y1337D02*
X1548Y1337D01*
D02*
X1548Y1337D02*
X1548Y1325D01*
D02*
X1548Y1325D02*
X1572Y1301D01*
D02*
X1572Y1301D02*
X1572Y1289D01*
D02*
X1572Y1289D02*
X1620Y1289D01*
D02*
X1620Y1289D02*
X1620Y1277D01*
D02*
X1620Y1277D02*
X1632Y1265D01*
D02*
X1632Y1265D02*
X1644Y1265D01*
D02*
X1644Y1265D02*
X1654Y1249D01*
D02*
X1452Y1636D02*
X1452Y1625D01*
X1452Y1625D02*
X1452Y1601D01*
X1452Y1601D02*
X1548Y1601D01*
X1548Y1601D02*
X1548Y1589D01*
X1548Y1589D02*
X1560Y1577D01*
X1560Y1577D02*
X1572Y1577D01*
X1572Y1577D02*
X1788Y1325D01*
D02*
X1788Y1325D02*
X1788Y1313D01*
D02*
X1788Y1313D02*
X1836Y1313D01*
D02*
X1836Y1313D02*
X1836Y1265D01*
D02*
X1836Y1265D02*
X1851Y1247D01*
D02*
X1564Y1639D02*
X1572Y1625D01*
X1572Y1625D02*
X1620Y1625D01*
X1620Y1625D02*
X1620Y1613D01*
X1620Y1613D02*
X1836Y1397D01*
D02*
X1836Y1397D02*
X1836Y1385D01*
D02*
X1836Y1385D02*
X1884Y1385D01*
D02*
X1884Y1385D02*
X1884Y1313D01*
D02*
X1884Y1313D02*
X2028Y1313D01*
D02*
X2028Y1313D02*
X2028Y1301D01*
D02*
X2028Y1301D02*
X2052Y1277D01*
D02*
X2052Y1277D02*
X2052Y1265D01*
D02*
X2052Y1265D02*
X2058Y1251D01*
D02*
X2243Y1412D02*
X2244Y1409D01*
D02*
X2244Y1409D02*
X2172Y1409D01*
D02*
X2172Y1409D02*
X2172Y1397D01*
D02*
X2172Y1397D02*
X2160Y1385D01*
D02*
X2160Y1385D02*
X2148Y1385D01*
D02*
X2148Y1385D02*
X2148Y1169D01*
D02*
X2148Y1169D02*
X1932Y1169D01*
D02*
X1932Y1169D02*
X1932Y1157D01*
X1932Y1157D02*
X1800Y1025D01*
X1800Y1025D02*
X1788Y1025D01*
X1788Y1025D02*
X1788Y953D01*
X1788Y953D02*
X1783Y947D01*
D02*
X2052Y89D02*
X2052Y89D01*
X2052Y89D02*
X2052Y113D01*
X2052Y113D02*
X2004Y113D01*
X2004Y113D02*
X2004Y137D01*
X2004Y137D02*
X1956Y137D01*
X1956Y137D02*
X1956Y149D01*
X1956Y149D02*
X1920Y185D01*
X1920Y185D02*
X1908Y185D01*
X1908Y185D02*
X1908Y473D01*
X1908Y473D02*
X1836Y473D01*
X1836Y473D02*
X1836Y689D01*
X1836Y689D02*
X1829Y698D01*
D02*
X2148Y88D02*
X2148Y89D01*
X2148Y89D02*
X2148Y113D01*
X2148Y113D02*
X2100Y113D01*
X2100Y113D02*
X2100Y161D01*
X2100Y161D02*
X2052Y161D01*
X2052Y161D02*
X2052Y185D01*
X2052Y185D02*
X2004Y185D01*
X2004Y185D02*
X2004Y197D01*
X2004Y197D02*
X1968Y233D01*
X1968Y233D02*
X1956Y233D01*
X1956Y233D02*
X1956Y521D01*
X1956Y521D02*
X1884Y521D01*
X1884Y521D02*
X1884Y761D01*
X1884Y761D02*
X1872Y761D01*
X1872Y761D02*
X1860Y773D01*
X1860Y773D02*
X1860Y785D01*
X1860Y785D02*
X1740Y785D01*
X1740Y785D02*
X1740Y689D01*
X1740Y689D02*
X1752Y689D01*
X1752Y689D02*
X1776Y665D01*
X1776Y665D02*
X1788Y665D01*
X1788Y665D02*
X1788Y497D01*
X1788Y497D02*
X1668Y497D01*
X1668Y497D02*
X1668Y545D01*
X1668Y545D02*
X1452Y545D01*
X1452Y545D02*
X1452Y569D01*
X1452Y569D02*
X1438Y582D01*
D02*
X1236Y354D02*
X1236Y353D01*
X1236Y353D02*
X1500Y353D01*
X1500Y353D02*
X1510Y350D01*
D02*
X1788Y286D02*
X1788Y353D01*
X1788Y353D02*
X1548Y353D01*
X1548Y353D02*
X1531Y342D01*
D02*
X2245Y87D02*
X2244Y89D01*
X2244Y89D02*
X2244Y113D01*
X2244Y113D02*
X2196Y113D01*
X2196Y113D02*
X2196Y305D01*
X2196Y305D02*
X2182Y312D01*
D02*
X2009Y617D02*
X2004Y617D01*
X2004Y617D02*
X2004Y353D01*
X2004Y353D02*
X2148Y353D01*
X2148Y353D02*
X2161Y323D01*
D02*
X1139Y1046D02*
X1140Y1025D01*
X1140Y1025D02*
X1140Y1001D01*
X1140Y1001D02*
X1260Y929D01*
X1260Y929D02*
X1308Y881D01*
X1308Y881D02*
X1320Y881D01*
X1320Y881D02*
X1332Y869D01*
X1332Y869D02*
X1932Y857D01*
X1932Y857D02*
X1932Y905D01*
X1932Y905D02*
X1947Y915D01*
D02*
X121Y164D02*
X132Y185D01*
X132Y185D02*
X132Y209D01*
X132Y209D02*
X276Y209D01*
X276Y209D02*
X276Y221D01*
X276Y221D02*
X1068Y1013D01*
X1068Y1013D02*
X1068Y1025D01*
X1068Y1025D02*
X1140Y1025D01*
X1140Y1025D02*
X1140Y1001D01*
D02*
X2076Y905D02*
X2076Y905D01*
X2076Y905D02*
X2076Y893D01*
X2076Y893D02*
X2088Y881D01*
X2088Y881D02*
X2100Y881D01*
X2100Y881D02*
X2100Y593D01*
X2100Y593D02*
X2113Y578D01*
G04 End of Copper0*
M02*