G04 MADE WITH FRITZING*
G04 WWW.FRITZING.ORG*
G04 DOUBLE SIDED*
G04 HOLES PLATED*
G04 CONTOUR ON CENTER OF CONTOUR VECTOR*
%ASAXBY*%
%FSLAX23Y23*%
%MOIN*%
%OFA0B0*%
%SFA1.0B1.0*%
%ADD10C,0.085000*%
%ADD11C,0.088000*%
%ADD12C,0.072992*%
%ADD13C,0.077000*%
%ADD14C,0.105118*%
%ADD15C,0.096614*%
%ADD16C,0.085433*%
%ADD17R,0.085000X0.085000*%
%ADD18R,0.072992X0.072992*%
%ADD19R,0.077000X0.077000*%
%ADD20R,0.105118X0.105118*%
%LNMASK0*%
G90*
G70*
G54D10*
X2068Y1228D03*
X2068Y928D03*
X1968Y1228D03*
X1968Y928D03*
X1868Y1228D03*
X1868Y928D03*
X1768Y1228D03*
X1768Y928D03*
X1668Y1228D03*
X1668Y928D03*
X1568Y1228D03*
X1568Y928D03*
X1468Y1228D03*
X1468Y928D03*
X1368Y1228D03*
X1368Y928D03*
G54D11*
X1256Y63D03*
X1356Y63D03*
X1456Y63D03*
X1556Y63D03*
X1656Y63D03*
X1756Y63D03*
X1856Y63D03*
X1956Y63D03*
X2056Y63D03*
X2156Y63D03*
X2256Y63D03*
X2356Y63D03*
X2456Y63D03*
G54D12*
X1216Y342D03*
X1216Y441D03*
X1531Y342D03*
X1531Y441D03*
X2161Y421D03*
X2161Y323D03*
X1846Y421D03*
X1846Y323D03*
G54D13*
X1020Y598D03*
X1420Y598D03*
X1413Y716D03*
X1813Y716D03*
X2352Y693D03*
X2352Y293D03*
X1728Y559D03*
X2128Y559D03*
G54D14*
X2234Y2041D03*
X2234Y1841D03*
X2234Y1641D03*
X2234Y1441D03*
G54D10*
X1453Y1661D03*
X1553Y1661D03*
X1216Y1543D03*
X1316Y1543D03*
X1138Y1071D03*
X1238Y1071D03*
X1166Y1357D03*
X1166Y1257D03*
G54D11*
X896Y1953D03*
X2397Y1071D03*
X896Y142D03*
X108Y142D03*
X108Y1953D03*
G54D15*
X187Y378D03*
X817Y1717D03*
X1492Y1504D03*
G54D16*
X1788Y257D03*
X1980Y617D03*
G54D17*
X2068Y1228D03*
G54D18*
X1216Y342D03*
X1531Y342D03*
X2161Y421D03*
X1846Y421D03*
G54D19*
X1020Y598D03*
X1413Y716D03*
X2352Y693D03*
X1728Y559D03*
G54D20*
X2234Y2041D03*
G54D17*
X1453Y1661D03*
X1216Y1543D03*
X1138Y1071D03*
X1166Y1357D03*
G04 End of Mask0*
M02*