M48
M72,TZ
T10C0.035000
T11C0.038000
T12C0.031497
T13C0.037000
T14C0.055118
T15C0.086614
T16C0.035433
%
T10
X1.166380Y1.256871
X1.166380Y1.356871
X1.237630Y1.070650
X1.137630Y1.070650
X1.316380Y1.543094
X1.216380Y1.543094
X1.552600Y1.661206
X1.452600Y1.661206
X1.367560Y0.928130
X1.367560Y1.228131
X1.467560Y0.928130
X1.467560Y1.228131
X1.567560Y0.928130
X1.567560Y1.228131
X1.667560Y0.928130
X1.667560Y1.228131
X1.767560Y0.928130
X1.767560Y1.228131
X1.867560Y0.928130
X1.867560Y1.228131
X1.967560Y0.928130
X1.967560Y1.228131
X2.067560Y0.928130
X2.067560Y1.228131
T11
X0.108311Y1.952894
X0.108311Y0.141870
X0.895711Y0.141870
X2.397480Y1.070650
X0.895711Y1.952894
X2.455560Y0.063130
X2.355560Y0.063130
X2.255560Y0.063130
X2.155560Y0.063130
X2.055560Y0.063130
X1.955560Y0.063130
X1.855560Y0.063130
X1.755560Y0.063130
X1.655560Y0.063130
X1.555560Y0.063130
X1.455560Y0.063130
X1.355560Y0.063130
X1.255560Y0.063130
T12
X1.846290Y0.322620
X1.846290Y0.421050
X2.161260Y0.322620
X2.161260Y0.421050
X1.531340Y0.440730
X1.531340Y0.342300
X1.216370Y0.440730
X1.216370Y0.342300
T13
X2.128190Y0.558840
X1.728190Y0.558840
X2.352410Y0.293050
X2.352410Y0.693050
X1.813220Y0.716320
X1.413220Y0.716320
X1.419520Y0.598210
X1.019520Y0.598210
T14
X2.234300Y1.441083
X2.234300Y1.641083
X2.234300Y1.841083
X2.234300Y2.041083
T15
X1.491960Y1.503721
X0.816973Y1.716677
X0.187051Y0.378090
T16
X1.980010Y0.617350
X1.788010Y0.257350
T00
M30
